<svg xmlns="http://www.w3.org/2000/svg" xmlns:xlink="http://www.w3.org/1999/xlink" id="Layer_1" data-name="Layer 1" viewBox="0 0 720 720"><defs><style>.cls-1{fill:#e1e1e1;}.cls-2{fill:#f39ac1;}.cls-3{fill:#fdc789;}.cls-4{fill:none;}.cls-17,.cls-4{stroke:#000;stroke-miterlimit:10;}.cls-17,.cls-5{fill:#fff;}.cls-6{fill:#bc8cbf;}.cls-7{fill:#f9ad81;}.cls-8{fill:#8781bd;}.cls-9{fill:#f69799;}.cls-10{fill:#7ca6d8;}.cls-11{fill:#010101;}.cls-12{fill:#6ecff5;}.cls-13{fill:#7accc8;}.cls-14{fill:#82ca9c;}.cls-15{fill:#c4df9b;}.cls-16{fill:#fdf59c;}.cls-17{stroke-width:2px;}[onclick]{cursor:pointer;transition:transform 100ms;}[onclick]:hover{transform:scale(1.1);}</style><symbol id="Flat" data-name="Flat" viewBox="0 0 4.61 15.01"><path d="M.47,8.37a4.27,4.27,0,0,1,2.17-.63A2.15,2.15,0,0,1,3.89,8a1.21,1.21,0,0,1,.63.89l.09.58a3.26,3.26,0,0,1-1,2.07c-.54.59-.91,1-1.52,1.59L0,15V0H.46V8.37Zm1.63.09a2.18,2.18,0,0,0-1.63.68v4.52a14.06,14.06,0,0,0,1.65-2,3.72,3.72,0,0,0,.75-2c0-.21,0-.37,0-.46a.88.88,0,0,0-.26-.7l-.18-.07-.35,0Z"/></symbol><symbol id="Staff" data-name="Staff" viewBox="0 0 71.79 85.3"><g id="Staff-3" data-name="Staff"><path d="M14.07,31a9.66,9.66,0,0,1-1.77.15,7.46,7.46,0,0,1-3-.47A9.81,9.81,0,0,1,4.91,27a9.19,9.19,0,0,1-1.12-4.1,8.42,8.42,0,0,1,1-4.41,12.07,12.07,0,0,1,2.56-3.45,41.38,41.38,0,0,1,3.56-3c-.06-.37-.18-1.07-.3-2.15s-.12-1.7-.12-2.07a9.51,9.51,0,0,1,1.61-6C12.93.65,13.62,0,14.21,0s1,.7,1.61,2.14a11.17,11.17,0,0,1,.95,3.71,9.6,9.6,0,0,1-1.56,6,15.57,15.57,0,0,1-2.28,2.75c-.3.21-.59.44-.87.68l.73,4.21a6.3,6.3,0,0,1,.65,0,5.09,5.09,0,0,1,3.1.82,5.48,5.48,0,0,1,2.28,4.28,6.29,6.29,0,0,1-4.19,6.3c.19,1.33.39,2.56.58,3.77a11.28,11.28,0,0,1,.14,1.87A3.46,3.46,0,0,1,15,38.09a4.29,4.29,0,0,1-3.69,2.4,5.56,5.56,0,0,1-2.89-.61,2.88,2.88,0,0,1-1.86-2.44,3.33,3.33,0,0,1,.46-2,2.2,2.2,0,0,1,1.84-1,2.35,2.35,0,0,1,2.41,2c.09,1.31-.7,2.19-2.45,2.68a2.77,2.77,0,0,0,2.38.84,4,4,0,0,0,3.26-2,3.65,3.65,0,0,0,.3-1.72,10.12,10.12,0,0,0-.11-1.57c-.19-1.23-.43-2.47-.61-3.71Zm.46-27.59c-2.21,0-3.14,4.08-3.14,6.66a15.09,15.09,0,0,0,.11,1.66,16.08,16.08,0,0,0,3-3,5.42,5.42,0,0,0,1.4-3.44c-.09-1.26-.53-1.92-1.33-1.89ZM13.25,22.47l1.26,7.6c1.86-.63,2.7-2.05,2.54-4.29S15.61,22.38,13.25,22.47Zm-.56.05a2.81,2.81,0,0,0-3,3,3.67,3.67,0,0,0,1.75,2.68.62.62,0,0,0-.23.23,4.65,4.65,0,0,1-2.87-4,4.8,4.8,0,0,1,2.05-4,4.89,4.89,0,0,1,1.82-.84l-.68-4a16.14,16.14,0,0,0-2.14,1.7,14.14,14.14,0,0,0-2.54,2.77,7.54,7.54,0,0,0-1.56,4.55,5.74,5.74,0,0,0,2.16,4.1,7.09,7.09,0,0,0,4.73,1.7A7.41,7.41,0,0,0,14,30.23c-.44-2.59-.84-5.15-1.26-7.71Z"/><path d="M0,7.76V85H1V7.76M0,8.09H71.79V7.44H0v.65Zm0,5.82H71.79v-.64H0v.64Zm0,5.83H71.79v-.65H0v.65Zm0,5.83H71.79v-.65H0v.65Zm0,5.82H71.79v-.64H0v.65ZM0,62H71.79v-.64H0V62Zm0,5.83H71.79v-.65H0v.65Zm0,5.83H71.79V73H0v.65Zm0,5.83H71.79v-.65H0v.65ZM0,85.3H71.79v-.64H0v.64Z"/><path d="M7.47,65.26c1.19,0,1.7.33,2.05,1.14l.38.91a2,2,0,0,1-.17.93,1.88,1.88,0,0,1-.44.73,3,3,0,0,1-2,1,3.28,3.28,0,0,1-2.61-1,3,3,0,0,1-.82-2.33A5,5,0,0,1,4.65,64a4.37,4.37,0,0,1,3.2-2.17l.84-.14.6,0c3.59,0,5.48,1.58,6.39,4.24a7.56,7.56,0,0,1,.42,2.49,10.66,10.66,0,0,1-1.59,5.83c-2.07,3.38-5.45,5.36-9.6,6.71l-.7.12c-.21,0-.33-.07-.33-.19a.65.65,0,0,1,.24-.37c.81-.35,1.63-.7,2.24-1l1.81-1a9.66,9.66,0,0,0,4.59-6,14.34,14.34,0,0,0,.52-2.33c.07-.52.12-.82.14-.91a20.51,20.51,0,0,0-.54-3.26,2,2,0,0,0-.37-.94,4.77,4.77,0,0,0-.72-.79,4.07,4.07,0,0,0-2.75-1,4.46,4.46,0,0,0-2.64.66,2,2,0,0,0-1,1.7v.37c0,.12.07.21.1.26a3,3,0,0,1,2-.91Zm10,5a1.3,1.3,0,0,1,1.32-1.35,1,1,0,0,1,.93.42c.21.34.38.41.38.93a1,1,0,0,1-.12.49,1.29,1.29,0,0,1-2.51-.49Zm1.32-6.88a1.34,1.34,0,0,1,1.31,1.35,1.36,1.36,0,0,1-1.31,1.36L18.22,66a1.45,1.45,0,0,1-.79-1.29l.07-.53a1.34,1.34,0,0,1,1.25-.82Z"/></g></symbol><symbol id="F-2" data-name="F" viewBox="0 0 71.79 85.3"><use width="4.61" height="15.01" transform="translate(25.84 68.22)" xlink:href="#Flat"/><use width="4.61" height="15.01" transform="translate(25.84 8.49)" xlink:href="#Flat"/><use width="71.79" height="85.3" xlink:href="#Staff"/></symbol><symbol id="Bb-2" data-name="Bb" viewBox="0 0 71.79 85.56"><use width="4.61" height="15.01" transform="translate(31.76)" xlink:href="#Flat"/><use width="4.61" height="15.01" transform="translate(31.76 60.16)" xlink:href="#Flat"/><use width="71.79" height="85.3" transform="translate(0 0.25)" xlink:href="#F-2"/></symbol><symbol id="Eb-2" data-name="Eb" viewBox="0 0 71.79 86.43"><use width="4.61" height="15.01" transform="translate(37.69 12.2)" xlink:href="#Flat"/><use width="4.61" height="15.01" transform="translate(37.69 71.42)" xlink:href="#Flat"/><use width="71.79" height="85.56" xlink:href="#Bb-2"/></symbol><symbol id="Ab-2" data-name="Ab" viewBox="0 0 71.79 86.43"><use width="4.61" height="15.01" transform="translate(43.72 3.08)" xlink:href="#Flat"/><use width="4.61" height="15.01" transform="translate(43.98 62.81)" xlink:href="#Flat"/><use width="71.79" height="86.43" xlink:href="#Eb-2"/></symbol><symbol id="Sharp" data-name="Sharp" viewBox="0 0 4.59 16.18"><path d="M3.17,3.94V0h.4V3.82l1-.32V5.62l-1,.32V9.79l1-.28v2.12l-1,.31v3.61h-.4v-3.5l-1.77.51v3.61H1V12.7L0,13V10.91l1-.33V6.69L0,7V4.87l1-.3V.63h.4v3.8l1.77-.49ZM1.4,6.57v3.9L3.17,10V6Z"/></symbol><symbol id="G" data-name="G" viewBox="0 0 71.79 85.84"><use width="4.59" height="16.17" transform="translate(25.64)" xlink:href="#Sharp"/><use width="4.59" height="16.17" transform="translate(25.64 59.73)" xlink:href="#Sharp"/><use width="71.79" height="85.3" transform="translate(0 0.54)" xlink:href="#Staff"/></symbol><symbol id="D" data-name="D" viewBox="0 0 71.79 85.84"><use width="4.59" height="16.17" transform="translate(31.75 8.49)" xlink:href="#Sharp"/><use width="4.59" height="16.17" transform="translate(31.75 68.39)" xlink:href="#Sharp"/><use width="71.79" height="85.84" xlink:href="#G"/></symbol><symbol id="A" data-name="A" viewBox="0 0 71.79 88.82"><use width="4.59" height="16.17" transform="translate(37.58)" xlink:href="#Sharp"/><use width="4.59" height="16.17" transform="translate(37.59 59.8)" xlink:href="#Sharp"/><use width="71.79" height="85.84" transform="translate(0 2.98)" xlink:href="#D"/></symbol><symbol id="E" data-name="E" viewBox="0 0 71.79 88.82"><use width="4.59" height="16.17" transform="translate(43.58 9.26)" xlink:href="#Sharp"/><use width="4.59" height="16.17" transform="translate(43.57 68.67)" xlink:href="#Sharp"/><use width="71.79" height="88.82" xlink:href="#A"/></symbol><symbol id="B" data-name="B" viewBox="0 0 48.24 62.82"><use width="4.59" height="16.17" transform="translate(33.27 12.03) scale(0.66)" xlink:href="#Sharp"/><use width="4.59" height="16.17" transform="translate(33.28 52.15) scale(0.66)" xlink:href="#Sharp"/><use width="71.79" height="88.82" transform="scale(0.67)" xlink:href="#E"/></symbol><symbol id="F_" data-name="F#" viewBox="0 0 48.24 62.82"><use width="4.59" height="16.17" transform="translate(37.23 4) scale(0.66)" xlink:href="#Sharp"/><use width="4.59" height="16.17" transform="translate(37.23 43.9) scale(0.66)" xlink:href="#Sharp"/><use width="48.24" height="62.82" xlink:href="#B"/></symbol><symbol id="Db-2" data-name="Db" viewBox="0 0 47.85 59.89"><use width="4.61" height="15.01" transform="translate(33 9.1) scale(0.71)" xlink:href="#Flat"/><use width="4.61" height="15.01" transform="translate(32.95 49.25) scale(0.71)" xlink:href="#Flat"/><use width="71.79" height="86.43" transform="scale(0.67)" xlink:href="#Ab-2"/></symbol><symbol id="Gb-2" data-name="Gb" viewBox="0 0 47.85 59.89"><use width="4.61" height="15.01" transform="translate(37.26 3.91) scale(0.71)" xlink:href="#Flat"/><use width="4.61" height="15.01" transform="translate(37.34 43.35) scale(0.71)" xlink:href="#Flat"/><use width="47.85" height="59.89" xlink:href="#Db-2"/></symbol></defs><g id="F" transform-origin="50% 50%" onclick="parent.postMessage('C')"><path class="cls-1" d="M279,57.81,360,360,138.78,138.78A315,315,0,0,1,279,57.81Z"/><path class="cls-2" d="M314.47,190.1,360,360,235.63,235.62a177.23,177.23,0,0,1,78.84-45.52Z"/><path class="cls-3" d="M328.24,241.47,360,360l-86.77-86.77a123.7,123.7,0,0,1,55-31.76Z"/><path class="cls-4" d="M138.78,138.78A315,315,0,0,1,279,57.81"/><path d="M318.54,281.13a5.89,5.89,0,0,1-1,3.65,3.42,3.42,0,0,1-2.9,1.29h-2.48v-9.91h2.49a3.4,3.4,0,0,1,2.89,1.31,5.94,5.94,0,0,1,1,3.66Zm-1.68,0a6.39,6.39,0,0,0-.16-1.54,3.32,3.32,0,0,0-.46-1.09,1.88,1.88,0,0,0-.7-.65,1.77,1.77,0,0,0-.88-.22h-.8v7h.8a1.94,1.94,0,0,0,.89-.21,2.15,2.15,0,0,0,.7-.65,3.65,3.65,0,0,0,.45-1.09,6.22,6.22,0,0,0,.16-1.52Z"/><polygon points="288.77 230.21 288.77 233.26 291.63 233.26 291.63 234.87 288.78 234.87 288.78 239.66 286.88 239.66 286.88 228.51 291.87 228.51 291.87 230.21 288.77 230.21"/><use width="71.79" height="85.3" transform="translate(204.01 102.44)" xlink:href="#F-2"/></g><g id="Bb" transform-origin="50% 50%" onclick="parent.postMessage('Bb')"><path class="cls-5" d="M138.78,138.78,360,360,57.81,279a315,315,0,0,1,81-140.25Z"/><path class="cls-6" d="M235.62,235.63,360,360,190.1,314.47a177.23,177.23,0,0,1,45.52-78.84Z"/><path class="cls-7" d="M273.23,273.23,360,360,241.47,328.24a123.7,123.7,0,0,1,31.76-55Z"/><path class="cls-4" d="M57.81,279a315,315,0,0,1,81-140.25"/><path d="M282.11,319a4.41,4.41,0,0,1-1.49.22,3.26,3.26,0,0,1-1.58-.37,3.34,3.34,0,0,1-1.19-1.06,5.05,5.05,0,0,1-.74-1.64,8.73,8.73,0,0,1,0-4.19,5.2,5.2,0,0,1,.73-1.65,3.58,3.58,0,0,1,1.15-1.08,3.05,3.05,0,0,1,1.51-.38,3.45,3.45,0,0,1,1.53.31,2.75,2.75,0,0,1,1.05.89l-1,1.18a1.74,1.74,0,0,0-1.51-.82,1.42,1.42,0,0,0-.9.3,2.3,2.3,0,0,0-.64.79,4.51,4.51,0,0,0-.38,1.16,7.7,7.7,0,0,0-.12,1.38,7.91,7.91,0,0,0,.12,1.42,4.59,4.59,0,0,0,.38,1.17,2.05,2.05,0,0,0,.64.77,1.47,1.47,0,0,0,.91.28,1.92,1.92,0,0,0,.61-.08,1.2,1.2,0,0,0,.44-.2v-2.56h-1.2v-1.46h2.73v5a3.79,3.79,0,0,1-1.07.59Z"/><path d="M236.34,280.34v7a4.66,4.66,0,0,1,.7-.33,3.94,3.94,0,0,1,1.47-.34,1.33,1.33,0,0,1,1.4.94,1.39,1.39,0,0,1,.09.5,2.4,2.4,0,0,1-.9,1.69,5.92,5.92,0,0,1-1.53,1.08,15.41,15.41,0,0,0-1.78,1.41V280.34Zm0,7.43v3.48s.24-.15.63-.51a8.72,8.72,0,0,0,1.09-1.24,2.52,2.52,0,0,0,.59-1.39.91.91,0,0,0-.54-.85.85.85,0,0,0-.38-.09,2.44,2.44,0,0,0-1.39.6Z"/><path d="M232.3,289.22a3.38,3.38,0,0,1-.29,1.47,2.87,2.87,0,0,1-.74,1,2.8,2.8,0,0,1-1,.53,4.2,4.2,0,0,1-1.09.15h-3.31V281.18h3a5,5,0,0,1,1,.12,2.83,2.83,0,0,1,1,.43,2.32,2.32,0,0,1,.75.85,2.89,2.89,0,0,1,.3,1.41,2.7,2.7,0,0,1-.44,1.63,2.44,2.44,0,0,1-1,.84v0a2.14,2.14,0,0,1,.63.27,1.84,1.84,0,0,1,.59.53,2.66,2.66,0,0,1,.44.82,3.15,3.15,0,0,1,.18,1.11Zm-2.08-4.93a1.72,1.72,0,0,0-.13-.72,1.41,1.41,0,0,0-.35-.47,1.22,1.22,0,0,0-.49-.26,2.25,2.25,0,0,0-.58-.08h-1v3.1h1.06a2.16,2.16,0,0,0,.56-.08,1.29,1.29,0,0,0,.48-.28,1.4,1.4,0,0,0,.35-.49,1.93,1.93,0,0,0,.13-.72Zm.27,4.77a1.89,1.89,0,0,0-.16-.83,1.63,1.63,0,0,0-.4-.55,1.77,1.77,0,0,0-.55-.31,2.08,2.08,0,0,0-.6-.09h-1.14v3.48h1.19a1.91,1.91,0,0,0,.64-.1,1.6,1.6,0,0,0,.53-.32,1.55,1.55,0,0,0,.36-.53,1.9,1.9,0,0,0,.13-.75Z"/><use width="71.79" height="85.56" transform="translate(107.87 190.89)" xlink:href="#Bb-2"/></g><g id="Eb" transform-origin="50% 50%" onclick="parent.postMessage('Eb')"><path class="cls-1" d="M57.81,279,360,360,57.81,441a315.13,315.13,0,0,1,0-161.94Z"/><path class="cls-8" d="M190.1,314.48,360,360,190.1,405.52a177.1,177.1,0,0,1,0-91Z"/><path class="cls-9" d="M241.47,328.24,360,360,241.47,391.76a123.6,123.6,0,0,1,0-63.52Z"/><path class="cls-4" d="M57.81,441a315.13,315.13,0,0,1,0-161.94"/><path d="M217.64,352.15v7c.27-.14.51-.25.7-.33a4,4,0,0,1,1.48-.34,1.35,1.35,0,0,1,1.4.95,1.59,1.59,0,0,1,.08.5,2.46,2.46,0,0,1-.89,1.69,6.13,6.13,0,0,1-1.54,1.07,18.36,18.36,0,0,0-1.78,1.41V352.15Zm0,7.44v3.48s.24-.15.63-.51a9.57,9.57,0,0,0,1.1-1.25,2.59,2.59,0,0,0,.59-1.39.93.93,0,0,0-.55-.85A.82.82,0,0,0,219,359a2.46,2.46,0,0,0-1.39.61Z"/><polygon points="208.47 364.15 208.47 353 213.46 353 213.46 354.67 210.28 354.67 210.28 357.63 213.23 357.63 213.23 359.17 210.28 359.17 210.28 362.47 213.62 362.47 213.62 364.15 208.47 364.15 208.47 364.15"/><path d="M271.14,365.06a2.84,2.84,0,0,1-1.53.37,3,3,0,0,1-1.52-.39A3.59,3.59,0,0,1,267,364a5.24,5.24,0,0,1-.73-1.64,8.53,8.53,0,0,1,0-4.18,5.36,5.36,0,0,1,.73-1.66,3.38,3.38,0,0,1,1.16-1.07,2.94,2.94,0,0,1,1.5-.39,3.38,3.38,0,0,1,1.5.32,2.69,2.69,0,0,1,1.05.9l-1,1.17a1.72,1.72,0,0,0-1.48-.82,1.4,1.4,0,0,0-.88.28,2.46,2.46,0,0,0-.63.78,4.05,4.05,0,0,0-.38,1.16,7.71,7.71,0,0,0,0,2.82,4.05,4.05,0,0,0,.38,1.16,2.31,2.31,0,0,0,.63.77,1.5,1.5,0,0,0,.91.29,1.39,1.39,0,0,0,.84-.25,2.21,2.21,0,0,0,.6-.62l1,1.14a3.24,3.24,0,0,1-1,.95Z"/><use width="71.79" height="86.43" transform="translate(80.09 314.24)" xlink:href="#Eb-2"/></g><g id="Ab" transform-origin="50% 50%" onclick="parent.postMessage('Ab')"><path class="cls-5" d="M57.81,441,360,360,138.78,581.22A315,315,0,0,1,57.81,441Z"/><path class="cls-10" d="M190.1,405.53,360,360,235.62,484.37a177.23,177.23,0,0,1-45.52-78.84Z"/><path class="cls-2" d="M241.47,391.76,360,360l-86.77,86.77a123.7,123.7,0,0,1-31.76-55Z"/><path class="cls-4" d="M138.78,581.22A315,315,0,0,1,57.81,441"/><polygon points="279.89 401.31 279.89 404.03 282.44 404.03 282.44 405.46 279.9 405.46 279.9 409.71 278.21 409.71 278.21 399.8 282.65 399.8 282.65 401.31 279.89 401.31 279.89 401.31"/><path class="cls-11" d="M236.24,425.69v7a5.13,5.13,0,0,1,.69-.33,4,4,0,0,1,1.48-.34,1.34,1.34,0,0,1,1.4.94,1.38,1.38,0,0,1,.08.5,2.38,2.38,0,0,1-.89,1.69,6.24,6.24,0,0,1-1.54,1.08,14.81,14.81,0,0,0-1.77,1.41V425.69h.55Zm0,7.43v3.48a2.69,2.69,0,0,0,.63-.51,9.4,9.4,0,0,0,1.09-1.24,2.62,2.62,0,0,0,.59-1.39.91.91,0,0,0-.54-.85.86.86,0,0,0-.39-.09A2.44,2.44,0,0,0,236.24,433.12Z"/><path d="M230.8,437.69l-.55-2.37h-2.93l-.57,2.37h-1.89l2.77-11.15H230l2.73,11.15Zm-2-9.38h-.07l-1.21,5.53H230l-1.18-5.53Z"/><use width="71.79" height="86.43" transform="translate(108.23 434.56)" xlink:href="#Ab-2"/></g><g id="Db" transform-origin="50% 50%" onclick="parent.postMessage('Db')"><path class="cls-1" d="M138.78,581.22,360,360,279,662.19a315,315,0,0,1-140.25-81Z"/><path class="cls-12" d="M235.63,484.38,360,360,314.47,529.9a177.23,177.23,0,0,1-78.84-45.52Z"/><path class="cls-6" d="M273.23,446.77,360,360,328.24,478.53a123.7,123.7,0,0,1-55-31.76Z"/><path class="cls-4" d="M279,662.19a315,315,0,0,1-140.25-81"/><path d="M329.13,433.71h.57v2.34l.87-.24v1.49l-.87.25V440l.87-.25v1.48l-.86.25v2.45h-.58V441.6l-1.41.39v2.49h-.58v-2.32l-.87.23v-1.5l.87-.23v-2.4l-.87.23V437l.87-.22v-2.48h.58v2.3l1.41-.39v-2.51Zm-1.42,6.79,1.42-.39v-2.4l-1.42.4v2.39Z"/><path d="M320.83,443.82l-.49-2.1h-2.6l-.51,2.1h-1.68l2.47-9.91h2.14l2.42,9.91Zm-1.75-8.33H319L318,440.4h2.18l-1.05-4.91Z"/><polygon points="310.42 444.32 309.48 444.11 312.08 433.19 313.01 433.4 310.42 444.32 310.42 444.32"/><path d="M302.4,433.16v6.19a6.66,6.66,0,0,1,.62-.3,3.58,3.58,0,0,1,1.31-.3,1.19,1.19,0,0,1,1.24.84,1.33,1.33,0,0,1,.08.45,2.14,2.14,0,0,1-.79,1.5,6,6,0,0,1-1.37,1,14.19,14.19,0,0,0-1.58,1.25v-10.6h.49Zm0,6.61v3.09s.21-.14.56-.45a8.75,8.75,0,0,0,1-1.11,2.3,2.3,0,0,0,.53-1.24.8.8,0,0,0-.49-.75.66.66,0,0,0-.34-.08,2.08,2.08,0,0,0-1.23.54Z"/><path d="M298.81,441.05a3,3,0,0,1-.26,1.31,2.46,2.46,0,0,1-.66.85,2.31,2.31,0,0,1-.89.47,3.8,3.8,0,0,1-1,.14h-2.94v-9.91h2.63a4.44,4.44,0,0,1,.93.11,2.51,2.51,0,0,1,.89.37,2.28,2.28,0,0,1,.68.76,2.67,2.67,0,0,1,.26,1.25,2.43,2.43,0,0,1-.39,1.46,2.13,2.13,0,0,1-.91.74v0a2,2,0,0,1,.57.23,2.07,2.07,0,0,1,.52.47,2.53,2.53,0,0,1,.39.73,2.78,2.78,0,0,1,.16,1ZM297,436.67a1.52,1.52,0,0,0-.12-.64,1.33,1.33,0,0,0-.3-.42,1,1,0,0,0-.44-.23,1.81,1.81,0,0,0-.52-.07h-.92v2.76h.95a1.74,1.74,0,0,0,.5-.08,1.1,1.1,0,0,0,.43-.25,1.14,1.14,0,0,0,.3-.43,1.56,1.56,0,0,0,.12-.64Zm.24,4.24a1.81,1.81,0,0,0-.14-.74,1.39,1.39,0,0,0-.36-.49,1.57,1.57,0,0,0-.49-.27,1.89,1.89,0,0,0-.53-.08h-1v3.09h1.05a1.7,1.7,0,0,0,.57-.09,1.18,1.18,0,0,0,.47-.28,1.35,1.35,0,0,0,.32-.47,1.67,1.67,0,0,0,.12-.67Z"/><path d="M272.59,486.76a6.64,6.64,0,0,1-1.11,4.1,3.86,3.86,0,0,1-3.27,1.46h-2.79V481.17h2.81a3.8,3.8,0,0,1,3.25,1.47A6.71,6.71,0,0,1,272.59,486.76Zm-1.89,0a7.45,7.45,0,0,0-.18-1.74,3.86,3.86,0,0,0-.51-1.23,2.27,2.27,0,0,0-.79-.73,2.13,2.13,0,0,0-1-.24h-.9v7.84h.9a2.13,2.13,0,0,0,1-.24,2.36,2.36,0,0,0,.79-.73,3.9,3.9,0,0,0,.51-1.22,7.24,7.24,0,0,0,.18-1.71Zm6-6.44v7c.27-.14.5-.25.7-.33a4.15,4.15,0,0,1,1.47-.34,1.45,1.45,0,0,1,1.49,1.45,2.44,2.44,0,0,1-.89,1.69,6.43,6.43,0,0,1-1.54,1.08,16,16,0,0,0-1.78,1.4V480.31h.55Zm0,7.43v3.48s.24-.15.63-.51a8.72,8.72,0,0,0,1.09-1.24,2.54,2.54,0,0,0,.59-1.4.9.9,0,0,0-.54-.84.85.85,0,0,0-.38-.09A2.44,2.44,0,0,0,276.69,487.75Zm9,5.13-1.06-.23,2.93-12.29,1,.24-2.91,12.28Zm12.51-.69a3.67,3.67,0,0,1-3.43,0,4.08,4.08,0,0,1-1.3-1.22,6.35,6.35,0,0,1-.82-1.86,9,9,0,0,1-.29-2.34,9.25,9.25,0,0,1,.29-2.36,6,6,0,0,1,.83-1.85,4,4,0,0,1,1.3-1.22,3.35,3.35,0,0,1,1.69-.43,3.89,3.89,0,0,1,1.69.35,3.06,3.06,0,0,1,1.18,1l-1.09,1.32a2,2,0,0,0-1.67-.93,1.65,1.65,0,0,0-1,.32,2.62,2.62,0,0,0-.71.88,4.62,4.62,0,0,0-.42,1.3,9.1,9.1,0,0,0,0,3.18,4.62,4.62,0,0,0,.42,1.3,2.4,2.4,0,0,0,.72.87,1.64,1.64,0,0,0,1,.33,1.62,1.62,0,0,0,.95-.29,2.59,2.59,0,0,0,.67-.69l1.09,1.27a3.64,3.64,0,0,1-1.13,1.08Zm8.67-11.25h.64v2.64l1-.28V485l-1,.29V488l1-.28v1.67l-1,.27v2.76h-.64v-2.56l-1.6.44v2.8h-.65v-2.61l-1,.26V489l1-.27v-2.7l-1,.26v-1.67l1-.25v-2.78h.66v2.59l1.59-.44v-2.83Zm-1.6,7.64,1.6-.44v-2.69l-1.6.44Z"/><use width="4.59" height="16.17" transform="translate(268.49 586.7) scale(0.66)" xlink:href="#Sharp"/><use width="4.59" height="16.17" transform="translate(268.49 627.01) scale(0.66)" xlink:href="#Sharp"/><use width="48.24" height="62.82" transform="translate(227.49 576.87)" xlink:href="#F_"/><use width="47.85" height="59.89" transform="translate(213.24 509.62)" xlink:href="#Db-2"/></g><g id="Gb" transform-origin="50% 50%" onclick="parent.postMessage('Gb')"><path class="cls-5" d="M279,662.19,360,360l81,302.19a315.13,315.13,0,0,1-161.94,0Z"/><path class="cls-13" d="M314.48,529.9,360,360l45.52,169.9a177.1,177.1,0,0,1-91,0Z"/><path class="cls-8" d="M328.24,478.53,360,360l31.76,118.53a123.6,123.6,0,0,1-63.52,0Z"/><path class="cls-4" d="M441,662.19a315.13,315.13,0,0,1-161.94,0"/><polygon points="342.63 458 342.63 448.08 347.06 448.08 347.06 449.57 344.24 449.57 344.24 452.2 346.85 452.2 346.85 453.57 344.24 453.57 344.24 456.5 347.2 456.5 347.2 458 342.63 458 342.63 458"/><path class="cls-11" d="M350.78,447.33v6.2a6.66,6.66,0,0,1,.62-.3,3.58,3.58,0,0,1,1.31-.3,1.2,1.2,0,0,1,1.25.84,1.33,1.33,0,0,1,.07.45,2.14,2.14,0,0,1-.79,1.5,5.5,5.5,0,0,1-1.37,1,15.27,15.27,0,0,0-1.58,1.25v-10.6Zm0,6.61V457s.21-.13.56-.45a8.05,8.05,0,0,0,1-1.1,2.3,2.3,0,0,0,.53-1.24.78.78,0,0,0-.49-.75.67.67,0,0,0-.34-.09,2.15,2.15,0,0,0-1.23.54Z"/><path d="M358.8,458.5l-.94-.21,2.6-10.92.93.21L358.8,458.5Zm12.74-5.44a5.88,5.88,0,0,1-1,3.64,3.42,3.42,0,0,1-2.91,1.3h-2.47v-9.92h2.49a3.4,3.4,0,0,1,2.89,1.31,6,6,0,0,1,1,3.66Zm-1.68,0a6.94,6.94,0,0,0-.16-1.54,3.61,3.61,0,0,0-.46-1.1,2.15,2.15,0,0,0-.7-.65,1.9,1.9,0,0,0-.88-.21h-.8v7h.79a1.83,1.83,0,0,0,.89-.22,2,2,0,0,0,.7-.65,3.58,3.58,0,0,0,.45-1.08,6.28,6.28,0,0,0,.16-1.52Z"/><path class="cls-11" d="M378.64,447.89h.58v2.34l.87-.24v1.49l-.87.25v2.4l.87-.25v1.48l-.87.25v2.45h-.58v-2.28l-1.41.39v2.49h-.58v-2.33l-.87.24v-1.5l.87-.23v-2.4l-.87.23v-1.49l.87-.22v-2.47h.58v2.29l1.41-.38v-2.52Zm-1.41,6.79,1.41-.4v-2.39l-1.41.39v2.4Z"/><path d="M345.55,511.8a5,5,0,0,1-1.68.25,3.62,3.62,0,0,1-3.11-1.6,5.86,5.86,0,0,1-.83-1.84,8.86,8.86,0,0,1-.3-2.38,9.17,9.17,0,0,1,.29-2.35,5.91,5.91,0,0,1,.82-1.85,3.72,3.72,0,0,1,1.29-1.21,3.34,3.34,0,0,1,1.7-.44,3.86,3.86,0,0,1,1.72.36,3.09,3.09,0,0,1,1.18,1l-1.09,1.32a2,2,0,0,0-1.7-.92,1.64,1.64,0,0,0-1,.33,2.58,2.58,0,0,0-.71.9,5,5,0,0,0-.43,1.3,8.59,8.59,0,0,0-.14,1.55,9,9,0,0,0,.14,1.6,5,5,0,0,0,.43,1.31,2.42,2.42,0,0,0,.71.88,1.72,1.72,0,0,0,1,.31,2.45,2.45,0,0,0,.69-.09,1.54,1.54,0,0,0,.5-.22v-2.89h-1.36v-1.63h3.07v5.65a4.05,4.05,0,0,1-1.2.66Zm5.52-12v7a5.81,5.81,0,0,1,.7-.33,4,4,0,0,1,1.48-.34,1.34,1.34,0,0,1,1.4.94,1.64,1.64,0,0,1,.08.5,2.42,2.42,0,0,1-.89,1.7,6.21,6.21,0,0,1-1.54,1.07,14.81,14.81,0,0,0-1.77,1.41V499.82Zm0,7.44v3.47s.24-.14.63-.5a8.88,8.88,0,0,0,1.1-1.25,2.59,2.59,0,0,0,.59-1.39.9.9,0,0,0-.55-.85.79.79,0,0,0-.38-.09,2.44,2.44,0,0,0-1.39.61Zm9,5.13-1-.24L362,499.86l1,.24-2.92,12.28Zm9.06-10v3.05H372V507h-2.85v4.79h-1.91V500.67h5v1.7ZM380,500.44h.65v2.64l1-.27v1.67l-1,.29v2.7l1-.29v1.67l-1,.28v2.76H380v-2.57l-1.59.44v2.81h-.66V510l-1,.26v-1.68l1-.26v-2.71l-1,.27v-1.68l1-.24v-2.79h.66v2.59l1.59-.43v-2.83Zm-1.59,7.64,1.59-.44V505l-1.59.44v2.69Z"/><use width="48.24" height="62.82" transform="translate(358.4 602.72)" xlink:href="#F_"/><use width="47.85" height="59.89" transform="translate(322.05 537.68)" xlink:href="#Gb-2"/></g><g id="B-5" data-name="B" transform-origin="50% 50%" onclick="parent.postMessage('B')"><path class="cls-1" d="M441,662.19,360,360,581.22,581.22a315,315,0,0,1-140.25,81Z"/><path class="cls-14" d="M405.53,529.9,360,360,484.37,484.38a177.23,177.23,0,0,1-78.84,45.52Z"/><path class="cls-10" d="M391.76,478.53,360,360l86.77,86.77a123.7,123.7,0,0,1-55,31.76Z"/><path class="cls-4" d="M581.22,581.22a315,315,0,0,1-140.25,81"/><path d="M395.8,443.82l-.49-2.1H392.7l-.5,2.1h-1.68l2.46-9.91h2.14l2.43,9.91Zm-1.75-8.33H394l-1.08,4.91h2.18l-1-4.91Z"/><path class="cls-11" d="M400.63,433.16v6.19a6.66,6.66,0,0,1,.62-.3,3.58,3.58,0,0,1,1.31-.3,1.2,1.2,0,0,1,1.25.84,1.33,1.33,0,0,1,.07.45,2.14,2.14,0,0,1-.79,1.5,5.78,5.78,0,0,1-1.37,1,15.27,15.27,0,0,0-1.58,1.25v-10.6h.49Zm0,6.61v3.09s.21-.14.56-.45a8.75,8.75,0,0,0,1-1.11,2.3,2.3,0,0,0,.53-1.24.8.8,0,0,0-.49-.75.66.66,0,0,0-.34-.08,2.08,2.08,0,0,0-1.23.54Z"/><path d="M408.65,444.32l-.94-.21,2.6-10.92.93.21-2.59,10.92Zm11.19-.51a4.41,4.41,0,0,1-1.49.22,3.26,3.26,0,0,1-1.58-.37,3.43,3.43,0,0,1-1.19-1.06,5.09,5.09,0,0,1-.74-1.63,8.21,8.21,0,0,1-.26-2.12,8.47,8.47,0,0,1,.25-2.08,5,5,0,0,1,.74-1.65,3.45,3.45,0,0,1,1.14-1.08,3.05,3.05,0,0,1,1.51-.38,3.45,3.45,0,0,1,1.53.31,2.75,2.75,0,0,1,1.05.89l-1,1.18a1.73,1.73,0,0,0-1.51-.81,1.45,1.45,0,0,0-.9.29,2.3,2.3,0,0,0-.64.79,4.16,4.16,0,0,0-.38,1.16,7.62,7.62,0,0,0-.12,1.38,7.91,7.91,0,0,0,.12,1.42,4.05,4.05,0,0,0,.38,1.16,2,2,0,0,0,.64.78,1.47,1.47,0,0,0,.91.28,2.27,2.27,0,0,0,.61-.07,1.2,1.2,0,0,0,.44-.21v-2.56h-1.2v-1.46h2.73v5a3.79,3.79,0,0,1-1.07.59Zm8.37-10.1h.58v2.34l.87-.24v1.49l-.87.25V440l.86-.25v1.48l-.86.25v2.45h-.58V441.6l-1.41.39v2.49h-.58v-2.32l-.87.23v-1.5l.87-.23v-2.4l-.87.23V437l.87-.22v-2.48h.58v2.3l1.41-.39v-2.51Zm-1.41,6.79,1.41-.39v-2.4l-1.41.4v2.39Z"/><path d="M421.67,492.19a3.36,3.36,0,0,1-1.73.41,3.4,3.4,0,0,1-1.71-.44,4.15,4.15,0,0,1-1.29-1.22,6.35,6.35,0,0,1-.82-1.86,9,9,0,0,1-.29-2.34,9.25,9.25,0,0,1,.29-2.36,6,6,0,0,1,.83-1.85,4,4,0,0,1,1.3-1.22,3.35,3.35,0,0,1,1.69-.43,3.89,3.89,0,0,1,1.69.35,3.06,3.06,0,0,1,1.18,1l-1.09,1.32a2,2,0,0,0-1.67-.93,1.65,1.65,0,0,0-1,.32,2.62,2.62,0,0,0-.71.88,5,5,0,0,0-.42,1.3,8.5,8.5,0,0,0,0,3.18,4.62,4.62,0,0,0,.42,1.3,2.4,2.4,0,0,0,.72.87,1.64,1.64,0,0,0,1,.33,1.62,1.62,0,0,0,1-.29,2.59,2.59,0,0,0,.67-.69l1.09,1.27a3.64,3.64,0,0,1-1.13,1.08Zm4.77-11.87v7c.27-.14.5-.25.7-.33a4.15,4.15,0,0,1,1.47-.34,1.45,1.45,0,0,1,1.49,1.45,2.44,2.44,0,0,1-.89,1.69,6.43,6.43,0,0,1-1.54,1.08,16,16,0,0,0-1.78,1.4V480.31h.55Zm0,7.43v3.48s.24-.15.63-.51a8.72,8.72,0,0,0,1.09-1.24,2.54,2.54,0,0,0,.59-1.4.9.9,0,0,0-.54-.84.86.86,0,0,0-.39-.09,2.44,2.44,0,0,0-1.38.6Zm9,5.13-1.06-.23,2.93-12.29,1,.24-2.91,12.28Zm13.6-3.68a3.24,3.24,0,0,1-.29,1.47,2.87,2.87,0,0,1-.74,1,2.72,2.72,0,0,1-1,.53,4.15,4.15,0,0,1-1.09.15h-3.31V481.16h3a4.82,4.82,0,0,1,1,.12,2.76,2.76,0,0,1,1,.43,2.42,2.42,0,0,1,.76.85,2.89,2.89,0,0,1,.3,1.41,2.75,2.75,0,0,1-.44,1.64,2.52,2.52,0,0,1-1,.83v0a2.5,2.5,0,0,1,.64.27,2.09,2.09,0,0,1,.59.53,2.66,2.66,0,0,1,.44.82,3.16,3.16,0,0,1,.17,1.11ZM447,484.27a1.72,1.72,0,0,0-.13-.72,1.39,1.39,0,0,0-.34-.47,1.26,1.26,0,0,0-.5-.26,1.85,1.85,0,0,0-.58-.08h-1v3.1h1.07a1.76,1.76,0,0,0,.55-.09,1.24,1.24,0,0,0,.49-.27,1.48,1.48,0,0,0,.34-.49,1.75,1.75,0,0,0,.13-.72Zm.27,4.77a2.05,2.05,0,0,0-.15-.83,1.65,1.65,0,0,0-.41-.55,1.77,1.77,0,0,0-.55-.31,2.06,2.06,0,0,0-.59-.09H444.4v3.48h1.19a1.91,1.91,0,0,0,.64-.1,1.49,1.49,0,0,0,.89-.84,1.92,1.92,0,0,0,.13-.76Z"/><use width="48.24" height="62.82" transform="translate(459.38 507.46)" xlink:href="#B"/><use width="4.61" height="15.01" transform="translate(483.28 588.67) scale(0.71)" xlink:href="#Flat"/><use width="4.61" height="15.01" transform="translate(483.28 628.68) scale(0.71)" xlink:href="#Flat"/><use width="47.85" height="59.89" transform="translate(442.08 577.34)" xlink:href="#Gb-2"/></g><g id="E-7" data-name="E" transform-origin="50% 50%" onclick="parent.postMessage('E')"><path class="cls-5" d="M581.22,581.22,360,360l302.19,81a315,315,0,0,1-81,140.25Z"/><path class="cls-15" d="M484.38,484.37,360,360l169.9,45.53a177.23,177.23,0,0,1-45.52,78.84Z"/><path class="cls-12" d="M446.77,446.77,360,360l118.53,31.76a123.7,123.7,0,0,1-31.76,55Z"/><path class="cls-4" d="M662.19,441a315,315,0,0,1-81,140.25"/><path d="M438.32,410.21a3.31,3.31,0,0,1-3.06,0,3.45,3.45,0,0,1-1.14-1.08,5.3,5.3,0,0,1-.73-1.65,7.6,7.6,0,0,1-.26-2.08,7.75,7.75,0,0,1,.26-2.1,5.41,5.41,0,0,1,.73-1.65,3.38,3.38,0,0,1,1.16-1.07,2.94,2.94,0,0,1,1.5-.39,3.38,3.38,0,0,1,1.5.31,2.72,2.72,0,0,1,1.05.91l-1,1.17a1.75,1.75,0,0,0-1.49-.82,1.43,1.43,0,0,0-.88.29,2.31,2.31,0,0,0-.63.77A4.51,4.51,0,0,0,435,404a7.88,7.88,0,0,0-.13,1.42,8,8,0,0,0,.13,1.41,4,4,0,0,0,.38,1.15,2.17,2.17,0,0,0,.64.78,1.58,1.58,0,0,0,1.75,0,2.33,2.33,0,0,0,.59-.62l1,1.14a3.13,3.13,0,0,1-1,.95Zm7.7-10h.57v2.35l.87-.25v1.49l-.87.26v2.39l.87-.25v1.48l-.87.25v2.45H446V408.1l-1.42.39V411H444v-2.33l-.87.24v-1.5l.87-.23v-2.41l-.87.24v-1.49l.87-.22v-2.48h.58v2.3l1.42-.38v-2.52ZM444.6,407l1.42-.39v-2.39l-1.42.39V407Z"/><path d="M487.68,438.66V427.51h5v1.67h-3.18v3h2.95v1.55h-2.95V437h3.34v1.68Z"/><use width="71.79" height="88.82" transform="translate(541.27 434.79)" xlink:href="#E"/></g><g id="A-9" data-name="A" transform-origin="50% 50%" onclick="parent.postMessage('A')"><path class="cls-1" d="M662.19,441,360,360l302.19-81a315.13,315.13,0,0,1,0,161.94Z"/><path class="cls-16" d="M529.9,405.52,360,360l169.9-45.52a177.1,177.1,0,0,1,0,91Z"/><path class="cls-13" d="M478.53,391.76,360,360l118.53-31.76a123.6,123.6,0,0,1,0,63.52Z"/><path class="cls-4" d="M662.19,279a315.13,315.13,0,0,1,0,161.94"/><path d="M447.37,357.39v2.71h2.55v1.43h-2.54v4.26h-1.69v-9.91h4.44v1.51Z"/><path class="cls-11" d="M457,355.68h.57V358l.87-.24v1.49l-.86.25v2.4l.86-.26v1.49l-.86.24v2.46H457v-2.28l-1.41.39v2.49h-.58v-2.32l-.87.23v-1.5l.87-.23v-2.4l-.87.23V359l.87-.22v-2.47h.58v2.3l1.41-.39v-2.51Zm-1.42,6.79,1.42-.4v-2.39l-1.42.39Z"/><path d="M510.64,365.13l-.55-2.37h-2.93l-.57,2.37H504.7L507.48,354h2.41l2.72,11.15Zm-2-9.37h-.06l-1.21,5.52h2.45l-1.18-5.52Z"/><use width="71.79" height="88.82" transform="translate(566.68 310.88)" xlink:href="#A"/></g><g id="D-11" data-name="D" transform-origin="50% 50%" onclick="parent.postMessage('D')"><path class="cls-5" d="M662.19,279,360,360,581.22,138.78a315,315,0,0,1,81,140.25Z"/><path class="cls-3" d="M529.9,314.47,360,360,484.38,235.63a177.23,177.23,0,0,1,45.52,78.84Z"/><path class="cls-14" d="M478.53,328.24,360,360l86.77-86.77a123.7,123.7,0,0,1,31.76,55Z"/><path class="cls-4" d="M581.22,138.78a315,315,0,0,1,81,140.25"/><path d="M443.71,316.19a3,3,0,0,1-.26,1.31,2.37,2.37,0,0,1-.66.85,2.31,2.31,0,0,1-.89.47,3.35,3.35,0,0,1-1,.14H438v-9.91h2.63a4.42,4.42,0,0,1,.92.11,2.4,2.4,0,0,1,.9.38,2.13,2.13,0,0,1,.67.75,2.56,2.56,0,0,1,.27,1.26A2.33,2.33,0,0,1,443,313a2.05,2.05,0,0,1-.91.74v0a2.31,2.31,0,0,1,.57.24,1.93,1.93,0,0,1,.53.47,2.7,2.7,0,0,1,.54,1.71Zm-1.85-4.38a1.56,1.56,0,0,0-.12-.64,1.19,1.19,0,0,0-.3-.42,1.16,1.16,0,0,0-.44-.23,1.79,1.79,0,0,0-.51-.07h-.92v2.76h.94a1.74,1.74,0,0,0,.5-.08,1.22,1.22,0,0,0,.43-.24,1.31,1.31,0,0,0,.3-.44,1.56,1.56,0,0,0,.12-.64Zm.24,4.24a1.61,1.61,0,0,0-.14-.73,1.3,1.3,0,0,0-.36-.49,1.42,1.42,0,0,0-.49-.28,1.89,1.89,0,0,0-.53-.08h-1v3.09h1.06a1.79,1.79,0,0,0,.57-.09,1.31,1.31,0,0,0,.78-.75,1.67,1.67,0,0,0,.12-.67Z"/><path d="M493.8,286.77a6.65,6.65,0,0,1-1.11,4.11,3.85,3.85,0,0,1-3.27,1.45h-2.79V281.18h2.81a3.8,3.8,0,0,1,3.25,1.48A6.69,6.69,0,0,1,493.8,286.77Zm-1.89,0a7.42,7.42,0,0,0-.18-1.73,3.86,3.86,0,0,0-.51-1.23,2.27,2.27,0,0,0-.79-.73,2.13,2.13,0,0,0-1-.24h-.9v7.84h.9a2.13,2.13,0,0,0,1-.24,2.35,2.35,0,0,0,.78-.73,3.68,3.68,0,0,0,.52-1.22,7.24,7.24,0,0,0,.18-1.71Z"/><use width="71.79" height="85.84" transform="translate(541.39 191.34)" xlink:href="#D"/></g><g id="G-13" data-name="G" transform-origin="50% 50%" onclick="parent.postMessage('G')"><path class="cls-1" d="M581.22,138.78,360,360,441,57.81a315,315,0,0,1,140.25,81Z"/><path class="cls-7" d="M484.37,235.62,360,360l45.53-169.9a177.23,177.23,0,0,1,78.84,45.52Z"/><path class="cls-15" d="M446.77,273.23,360,360l31.76-118.53a123.7,123.7,0,0,1,55,31.76Z"/><path class="cls-4" d="M441,57.81a315,315,0,0,1,140.25,81"/><path d="M402.63,286.07v-9.91h4.44v1.49h-2.83v2.63h2.62v1.37h-2.62v2.93h3v1.49Z"/><path d="M434.66,239.64a4.92,4.92,0,0,1-1.68.25,3.86,3.86,0,0,1-1.78-.41,3.75,3.75,0,0,1-1.32-1.19,5.83,5.83,0,0,1-.84-1.85,9.91,9.91,0,0,1,0-4.72,5.91,5.91,0,0,1,.82-1.85,3.9,3.9,0,0,1,1.29-1.21,3.36,3.36,0,0,1,1.7-.44,3.8,3.8,0,0,1,1.72.36,3,3,0,0,1,1.18,1l-1.09,1.32A2,2,0,0,0,433,230a1.61,1.61,0,0,0-1,.33,2.57,2.57,0,0,0-.72.89,4.62,4.62,0,0,0-.42,1.3,7.79,7.79,0,0,0-.15,1.56,8,8,0,0,0,.15,1.59,4.69,4.69,0,0,0,.42,1.31,2.44,2.44,0,0,0,.72.88,1.7,1.7,0,0,0,1,.31,2.82,2.82,0,0,0,.68-.08,1.66,1.66,0,0,0,.5-.23V235H432.8v-1.64h3.07V239a3.81,3.81,0,0,1-1.21.66Z"/><use width="71.79" height="85.84" transform="translate(447.35 101.9)" xlink:href="#G"/></g><g id="C" transform-origin="50% 50%" onclick="parent.postMessage('C')"><path class="cls-5" d="M441,57.81,360,360,279,57.81a315.13,315.13,0,0,1,161.94,0Z"/><path class="cls-9" d="M405.52,190.1,360,360,314.48,190.1a177.1,177.1,0,0,1,91,0Z"/><path class="cls-16" d="M391.76,241.47,360,360,328.24,241.47a123.6,123.6,0,0,1,63.52,0Z"/><path class="cls-4" d="M279,57.81a315.13,315.13,0,0,1,161.94,0"/><use width="71.79" height="85.3" transform="translate(328.04 79.19)" xlink:href="#Staff"/><path d="M361.41,276.44l-.49-2.1h-2.61l-.5,2.1h-1.68l2.46-9.91h2.14l2.43,9.91Zm-1.75-8.33h-.06L358.52,273h2.19l-1-4.92Z"/><path d="M362.67,224.1a3.25,3.25,0,0,1-1.72.41,3.3,3.3,0,0,1-1.71-.44,3.84,3.84,0,0,1-1.29-1.22,5.81,5.81,0,0,1-.82-1.85,8.65,8.65,0,0,1-.29-2.35,8.75,8.75,0,0,1,.29-2.35,6.1,6.1,0,0,1,.82-1.86,3.94,3.94,0,0,1,1.3-1.21,3.38,3.38,0,0,1,1.7-.43,3.85,3.85,0,0,1,1.68.35,3.06,3.06,0,0,1,1.18,1l-1.08,1.32a2,2,0,0,0-1.67-.93,1.55,1.55,0,0,0-1,.33,2.38,2.38,0,0,0-.71.87,5,5,0,0,0-.43,1.3,9,9,0,0,0-.14,1.6,8.85,8.85,0,0,0,.14,1.58,4.62,4.62,0,0,0,.43,1.3,2.38,2.38,0,0,0,.71.87,1.64,1.64,0,0,0,1,.33,1.6,1.6,0,0,0,1-.29,2.59,2.59,0,0,0,.67-.69L363.8,223a3.61,3.61,0,0,1-1.13,1.07Z"/><path d="M322.69,68.71l-4.13-6.36h0v6.36h-1.21V56.31h1.21v5.57h0l3.88-5.57h1.42L319.69,62l4.47,6.67Zm3.11-4.1a6.74,6.74,0,0,0,.12,1.32,4.61,4.61,0,0,0,.36,1,2,2,0,0,0,.6.7,1.45,1.45,0,0,0,.86.25,1.37,1.37,0,0,0,1-.38,2.79,2.79,0,0,0,.59-.93l.88.51a3.37,3.37,0,0,1-.94,1.32,2.31,2.31,0,0,1-1.58.53,2.55,2.55,0,0,1-2.26-1.22,6.1,6.1,0,0,1-.8-3.38,7.81,7.81,0,0,1,.21-1.87,4.71,4.71,0,0,1,.6-1.47,2.93,2.93,0,0,1,1-1,2.45,2.45,0,0,1,1.26-.34,2.41,2.41,0,0,1,1.3.33,2.62,2.62,0,0,1,.87.91,4.49,4.49,0,0,1,.48,1.35,9.57,9.57,0,0,1,.14,1.65v.63Zm3.52-1a4.81,4.81,0,0,0-.4-2.11,1.35,1.35,0,0,0-1.27-.8,1.23,1.23,0,0,0-.85.31,2.4,2.4,0,0,0-.57.75,3.92,3.92,0,0,0-.31,1,4.49,4.49,0,0,0-.1.9Zm5.44,6.91a6.93,6.93,0,0,1-.32,1,2.51,2.51,0,0,1-.45.73,1.89,1.89,0,0,1-.6.45,1.86,1.86,0,0,1-.81.17,2.63,2.63,0,0,1-.49,0l-.41-.09.16-1,.3.07a2,2,0,0,0,.35,0,.88.88,0,0,0,.76-.35,2.83,2.83,0,0,0,.41-1l.39-1.5-2.52-9h1.22l1.88,7.34h0L336.32,60h1.18l-2.73,10.52Zm13.06-5a4.14,4.14,0,0,1-.24,1.46,3.11,3.11,0,0,1-.68,1.08,2.89,2.89,0,0,1-1,.69,3.4,3.4,0,0,1-1.23.23,3.77,3.77,0,0,1-1.74-.4,3.57,3.57,0,0,1-1.29-1.07l.76-.85a2.79,2.79,0,0,0,1,.89,2.68,2.68,0,0,0,1.24.31,1.86,1.86,0,0,0,1.41-.59,2.36,2.36,0,0,0,.57-1.7,2.27,2.27,0,0,0-.17-.93A2.51,2.51,0,0,0,346,64a3.69,3.69,0,0,0-.68-.56,6.94,6.94,0,0,0-.8-.46,7.48,7.48,0,0,1-1-.55,3.85,3.85,0,0,1-.79-.71,3.21,3.21,0,0,1-.55-1,3.54,3.54,0,0,1-.21-1.28,3.87,3.87,0,0,1,.26-1.5,3.08,3.08,0,0,1,.71-1.07,3,3,0,0,1,1-.64,3.32,3.32,0,0,1,1.17-.21,3.89,3.89,0,0,1,1.52.29,2.9,2.9,0,0,1,1.13.9l-.75.86a2,2,0,0,0-.83-.72,2.35,2.35,0,0,0-1-.22,2.08,2.08,0,0,0-.73.13,1.72,1.72,0,0,0-.63.41,2.17,2.17,0,0,0-.46.72,2.68,2.68,0,0,0-.17,1,2.52,2.52,0,0,0,.15.91,2.25,2.25,0,0,0,.43.68,3,3,0,0,0,.63.53q.36.22.75.42a9.66,9.66,0,0,1,1,.56,4.32,4.32,0,0,1,.86.73,3.2,3.2,0,0,1,.62,1,3.58,3.58,0,0,1,.23,1.32Zm3.5-8.18a.85.85,0,0,1-.22.61.78.78,0,0,1-.55.23A.75.75,0,0,1,350,58a.89.89,0,0,1-.22-.61.88.88,0,0,1,.22-.59.7.7,0,0,1,.55-.25.68.68,0,0,1,.55.25.83.83,0,0,1,.22.59ZM350,68.71V60h1.15v8.69Zm9.31-.13a9.26,9.26,0,0,1-.15,1.72,4.13,4.13,0,0,1-.5,1.36,2.51,2.51,0,0,1-.95.91,3,3,0,0,1-1.49.34,3.42,3.42,0,0,1-1.6-.4,3.32,3.32,0,0,1-1.2-1.06l.76-.8a2.71,2.71,0,0,0,.88.87,2.18,2.18,0,0,0,1.2.34,1.74,1.74,0,0,0,.95-.25,1.64,1.64,0,0,0,.59-.68,3.65,3.65,0,0,0,.3-1,8.7,8.7,0,0,0,.09-1.31V67.15h0a3,3,0,0,1-.7,1.31,1.8,1.8,0,0,1-1.38.52,2,2,0,0,1-1.18-.35,2.8,2.8,0,0,1-.85-1,5.18,5.18,0,0,1-.54-1.47,9,9,0,0,1-.18-1.86,9.66,9.66,0,0,1,.17-1.86A5,5,0,0,1,354,61a2.73,2.73,0,0,1,.86-1,2.07,2.07,0,0,1,1.18-.34,2,2,0,0,1,1.34.48,2.39,2.39,0,0,1,.74,1.27h.06V60h1.12v8.56Zm-1.12-4.22a7.88,7.88,0,0,0-.12-1.41,4.06,4.06,0,0,0-.35-1.16,2.33,2.33,0,0,0-.58-.77,1.27,1.27,0,0,0-.81-.28,1.23,1.23,0,0,0-.81.28,2.14,2.14,0,0,0-.57.76,4.34,4.34,0,0,0-.33,1.15,9.13,9.13,0,0,0-.11,1.43,9,9,0,0,0,.11,1.41,4.46,4.46,0,0,0,.33,1.15,2.1,2.1,0,0,0,.57.77,1.33,1.33,0,0,0,1.63,0,2.26,2.26,0,0,0,.57-.76,3.92,3.92,0,0,0,.35-1.14,8,8,0,0,0,.12-1.43Zm8.26,4.35V63.1a7.49,7.49,0,0,0-.05-.81,2.58,2.58,0,0,0-.19-.75,1.41,1.41,0,0,0-.42-.56,1.06,1.06,0,0,0-.71-.22,1.33,1.33,0,0,0-.78.24,1.88,1.88,0,0,0-.57.64,3.69,3.69,0,0,0-.37,1,4.44,4.44,0,0,0-.13,1.11v5h-1.16V62.21c0-.19,0-.39,0-.6s0-.43,0-.63l0-.56c0-.17,0-.3,0-.4h1.12c0,.22,0,.49,0,.81s0,.61,0,.89h0a3.18,3.18,0,0,1,.8-1.43,2.15,2.15,0,0,1,2.53-.25,2,2,0,0,1,.66.78,3.57,3.57,0,0,1,.3,1.08,9.94,9.94,0,0,1,.08,1.2v5.6h-1.15Zm7.42,0c0-.1,0-.21,0-.35v-.45c0-.16,0-.31,0-.45v-.38h0a2,2,0,0,1-2.1,1.85,1.89,1.89,0,0,1-.73-.14,1.73,1.73,0,0,1-.67-.45,2.52,2.52,0,0,1-.49-.8,3.68,3.68,0,0,1,.14-2.69,2.73,2.73,0,0,1,.84-.91,3,3,0,0,1,1.11-.44,6,6,0,0,1,1.15-.12h.68v-.45a2.68,2.68,0,0,0-.42-1.67,1.37,1.37,0,0,0-1.13-.52,1.72,1.72,0,0,0-.91.26,2.7,2.7,0,0,0-.72.67l-.62-.72a2.69,2.69,0,0,1,1.05-.9,3,3,0,0,1,1.3-.31,2.14,2.14,0,0,1,1.94.89,4.81,4.81,0,0,1,.58,2.61v3.61c0,.11,0,.26,0,.43s0,.36,0,.54,0,.35,0,.51,0,.28,0,.37h-1Zm-.14-4.41H373a4.76,4.76,0,0,0-.84.07,2.07,2.07,0,0,0-.75.3,1.76,1.76,0,0,0-.53.61,2,2,0,0,0-.21,1,1.86,1.86,0,0,0,.4,1.32,1.23,1.23,0,0,0,1.71.1,2.07,2.07,0,0,0,.54-.75,3.88,3.88,0,0,0,.29-1,6.38,6.38,0,0,0,.09-1V64.3Zm5.91,4.56a2.17,2.17,0,0,1-.57.07,1.38,1.38,0,0,1-1.29-.63,3.27,3.27,0,0,1-.38-1.68V61h-1.13V60h1.12V57.63h1.14V60h1.54V61h-1.54v5.44a2.24,2.24,0,0,0,.22,1.15.76.76,0,0,0,.69.36,1.39,1.39,0,0,0,.33,0l.3-.09.05.92a3,3,0,0,1-.48.16ZM382.74,60v5.6a7.67,7.67,0,0,0,.05.82,2.58,2.58,0,0,0,.19.75,1.39,1.39,0,0,0,.41.56,1.05,1.05,0,0,0,.72.22,1.4,1.4,0,0,0,.78-.23,2,2,0,0,0,.57-.65,3.69,3.69,0,0,0,.37-1A4.44,4.44,0,0,0,386,65V60h1.16v6.49c0,.19,0,.39,0,.6s0,.43,0,.63,0,.4,0,.57,0,.31,0,.39h-1.12c0-.22,0-.49-.05-.81s0-.61,0-.89h0a3.18,3.18,0,0,1-.8,1.43,2.15,2.15,0,0,1-2.53.25,2,2,0,0,1-.66-.78,3.59,3.59,0,0,1-.3-1.07,9.71,9.71,0,0,1-.08-1.21V60h1.15Zm9.12.25a1.59,1.59,0,0,1,1.16-.51l.21,0,0,1.19-.13,0h-.15a1.16,1.16,0,0,0-.78.3,2.53,2.53,0,0,0-.57.77,4.72,4.72,0,0,0-.34,1.08,7,7,0,0,0-.11,1.2v4.43H390v-6.5c0-.19,0-.39,0-.6s0-.43,0-.63l0-.56c0-.17,0-.3,0-.4H391c0,.22,0,.5.06.83s0,.69,0,1.06h0a3.22,3.22,0,0,1,.75-1.64Zm3.34,4.34a6,6,0,0,0,.13,1.32,3.81,3.81,0,0,0,.36,1,1.86,1.86,0,0,0,.59.7,1.45,1.45,0,0,0,.86.25,1.37,1.37,0,0,0,1-.38,2.66,2.66,0,0,0,.6-.93l.87.51a3.37,3.37,0,0,1-.94,1.32,2.31,2.31,0,0,1-1.58.53,2.55,2.55,0,0,1-2.26-1.22,6.19,6.19,0,0,1-.8-3.38,7.81,7.81,0,0,1,.21-1.87,4.71,4.71,0,0,1,.6-1.47,2.93,2.93,0,0,1,1-1,2.48,2.48,0,0,1,1.26-.34,2.39,2.39,0,0,1,1.3.33,2.62,2.62,0,0,1,.87.91,4.49,4.49,0,0,1,.48,1.35,8.65,8.65,0,0,1,.15,1.65v.63Zm3.52-1a4.67,4.67,0,0,0-.4-2.11,1.34,1.34,0,0,0-1.27-.8,1.25,1.25,0,0,0-.85.31,2.24,2.24,0,0,0-.56.75,3.55,3.55,0,0,0-.32,1,4.49,4.49,0,0,0-.1.9Zm6.57-2.12a1.85,1.85,0,0,0-.59-.62,1.53,1.53,0,0,0-.87-.24,1.19,1.19,0,0,0-.92.41,1.58,1.58,0,0,0-.36,1.08,1.31,1.31,0,0,0,.35,1,3.38,3.38,0,0,0,1.05.58,5,5,0,0,1,.7.34,2.36,2.36,0,0,1,.63.5,2.47,2.47,0,0,1,.62,1.7,2.71,2.71,0,0,1-.69,2,2.37,2.37,0,0,1-1.8.71,2.64,2.64,0,0,1-1.34-.34,2.91,2.91,0,0,1-1-.92l.7-.75a2.68,2.68,0,0,0,.71.75,1.66,1.66,0,0,0,1,.29,1.23,1.23,0,0,0,1-.45,1.77,1.77,0,0,0,.37-1.18,1.53,1.53,0,0,0-.14-.71,1.44,1.44,0,0,0-.36-.48,3.11,3.11,0,0,0-.52-.34c-.19-.09-.39-.18-.6-.26a3.73,3.73,0,0,1-.64-.3,2,2,0,0,1-.55-.45,2.07,2.07,0,0,1-.4-.68,2.67,2.67,0,0,1-.15-.95,2.54,2.54,0,0,1,.19-1,2.29,2.29,0,0,1,.51-.78,2.71,2.71,0,0,1,.76-.5,2.26,2.26,0,0,1,.94-.19,2.68,2.68,0,0,1,1.27.29,2.52,2.52,0,0,1,.87.74l-.68.76Z"/><path d="M341.89,256v-8.61h0L339.42,256h-.91l-2.41-8.61h0V256h-.93v-9.91h1.46l2.37,8.37H339l2.34-8.37h1.51V256Zm4.26-9.07a.68.68,0,0,1-.18.48.59.59,0,0,1-.44.19.58.58,0,0,1-.44-.19.7.7,0,0,1-.17-.48.72.72,0,0,1,.17-.48.58.58,0,0,1,.44-.19.55.55,0,0,1,.44.19.68.68,0,0,1,.18.48ZM345.07,256V249H346V256Zm6.64,0v-4.48c0-.21,0-.43,0-.65a1.89,1.89,0,0,0-.15-.6,1.17,1.17,0,0,0-.34-.45.84.84,0,0,0-.56-.18,1.14,1.14,0,0,0-.63.19,1.67,1.67,0,0,0-.46.52,3.09,3.09,0,0,0-.29.76,3.68,3.68,0,0,0-.11.89v4h-.92v-5.19c0-.15,0-.31,0-.49v-.5c0-.16,0-.31,0-.45a2.28,2.28,0,0,0,0-.31h.9c0,.17,0,.39,0,.64s0,.49,0,.71h0a2.57,2.57,0,0,1,.65-1.14,1.71,1.71,0,0,1,2-.2,1.56,1.56,0,0,1,.52.62,2.94,2.94,0,0,1,.25.87,7.73,7.73,0,0,1,.06,1V256Zm7.44-3.46A6.33,6.33,0,0,1,359,254a4,4,0,0,1-.48,1.16,2.3,2.3,0,0,1-.76.76,2.09,2.09,0,0,1-1,.26,2,2,0,0,1-1-.26,2.4,2.4,0,0,1-.76-.76,3.71,3.71,0,0,1-.48-1.16,6.31,6.31,0,0,1-.17-1.5,6.48,6.48,0,0,1,.16-1.51,4.1,4.1,0,0,1,.47-1.18,2.27,2.27,0,0,1,.76-.75,2,2,0,0,1,1-.27,2,2,0,0,1,1,.27,2.27,2.27,0,0,1,.76.75A3.84,3.84,0,0,1,359,251a6.48,6.48,0,0,1,.16,1.51Zm-.95,0a6.76,6.76,0,0,0-.09-1.14,3.58,3.58,0,0,0-.27-.92,1.7,1.7,0,0,0-.46-.61,1,1,0,0,0-.65-.22,1.09,1.09,0,0,0-.66.22,1.8,1.8,0,0,0-.45.61,3.58,3.58,0,0,0-.27.92,6.76,6.76,0,0,0-.09,1.14,6.55,6.55,0,0,0,.09,1.13,3.62,3.62,0,0,0,.27.91,1.52,1.52,0,0,0,.45.61,1,1,0,0,0,.66.22,1.09,1.09,0,0,0,.66-.22,1.43,1.43,0,0,0,.45-.61,3.62,3.62,0,0,0,.27-.91,6.55,6.55,0,0,0,.09-1.13Zm4.27-3.27a1.27,1.27,0,0,1,.93-.4h.16l0,.95-.11,0h-.12a.91.91,0,0,0-.62.24,2,2,0,0,0-.46.62,3.47,3.47,0,0,0-.27.86,5.2,5.2,0,0,0-.09,1V256H361v-5.19c0-.15,0-.31,0-.49l0-.5c0-.16,0-.31,0-.45a2.28,2.28,0,0,0,0-.31h.9c0,.17,0,.4,0,.66s0,.55,0,.85h0a2.62,2.62,0,0,1,.6-1.32Zm9.19,6.75-3.31-5.08h0V256h-1v-9.91h1v4.45h0l3.11-4.45h1.13l-3.33,4.58,3.57,5.33Zm2.49-3.28a5,5,0,0,0,.1,1.06,3.19,3.19,0,0,0,.28.84,1.57,1.57,0,0,0,.48.56,1.15,1.15,0,0,0,.69.2,1.11,1.11,0,0,0,.81-.3,2.1,2.1,0,0,0,.48-.75l.7.41a2.77,2.77,0,0,1-.75,1.06,1.89,1.89,0,0,1-1.27.43,2,2,0,0,1-1.8-1,4.91,4.91,0,0,1-.65-2.71,6.29,6.29,0,0,1,.17-1.49,3.84,3.84,0,0,1,.48-1.18,2.33,2.33,0,0,1,.77-.76,1.89,1.89,0,0,1,1-.28,1.92,1.92,0,0,1,1,.27,2.11,2.11,0,0,1,.69.73,3.61,3.61,0,0,1,.38,1.08,6.86,6.86,0,0,1,.12,1.31v.51h-3.74Zm2.81-.77a3.78,3.78,0,0,0-.32-1.68,1.07,1.07,0,0,0-1-.64,1,1,0,0,0-.68.25,2,2,0,0,0-.45.6,3.23,3.23,0,0,0-.25.76,4,4,0,0,0-.08.71Zm4.36,5.53a5.74,5.74,0,0,1-.27.8,2,2,0,0,1-.35.59,1.6,1.6,0,0,1-.49.36,1.41,1.41,0,0,1-.64.13,2.6,2.6,0,0,1-.4,0l-.32-.08.13-.81.24,0a1.27,1.27,0,0,0,.28,0,.7.7,0,0,0,.61-.28,2.23,2.23,0,0,0,.32-.77l.31-1.2-2-7.2h1l1.49,5.87h0l1.33-5.87h.94l-2.18,8.42Zm6.14-7.22a1.5,1.5,0,0,0-.47-.5,1.27,1.27,0,0,0-.69-.19.94.94,0,0,0-.74.33,1.27,1.27,0,0,0-.28.86,1,1,0,0,0,.28.82,2.67,2.67,0,0,0,.84.46,4.07,4.07,0,0,1,.56.27,2.09,2.09,0,0,1,.49.4,1.85,1.85,0,0,1,.36.57,2.07,2.07,0,0,1,.14.79,2.18,2.18,0,0,1-.55,1.59,1.91,1.91,0,0,1-1.44.56,2.15,2.15,0,0,1-1.07-.27,2.39,2.39,0,0,1-.82-.73l.56-.6a2.14,2.14,0,0,0,.57.59,1.28,1.28,0,0,0,.78.23,1,1,0,0,0,.79-.36,1.4,1.4,0,0,0,.3-.94,1.38,1.38,0,0,0-.11-.57,1.26,1.26,0,0,0-.3-.38,1.94,1.94,0,0,0-.41-.27l-.48-.21a2.38,2.38,0,0,1-.51-.24,1.55,1.55,0,0,1-.45-.36,1.78,1.78,0,0,1-.31-.54,2.13,2.13,0,0,1-.12-.76,2.07,2.07,0,0,1,.15-.8,1.77,1.77,0,0,1,.41-.62,1.93,1.93,0,0,1,.61-.41,1.86,1.86,0,0,1,.75-.15,2.12,2.12,0,0,1,1,.23,2.16,2.16,0,0,1,.7.6l-.55.6Z"/><path d="M340,202.71V193h-.05l-2.73,9.69h-1L333.46,193h0v9.69h-1V191.55H334l2.66,9.42h.06l2.63-9.42h1.71v11.16Zm6.85,0a2.88,2.88,0,0,1,0-.32l0-.4v-.75h0a1.86,1.86,0,0,1-1.9,1.67,1.72,1.72,0,0,1-.66-.13,1.57,1.57,0,0,1-.6-.41,2.26,2.26,0,0,1-.44-.71,3,3,0,0,1-.17-1,2.7,2.7,0,0,1,.3-1.37,2.38,2.38,0,0,1,.75-.82,2.8,2.8,0,0,1,1-.4,5.58,5.58,0,0,1,1-.11h.61v-.41a2.32,2.32,0,0,0-.38-1.49,1.23,1.23,0,0,0-1-.48,1.48,1.48,0,0,0-.82.24,2.47,2.47,0,0,0-.65.6l-.55-.65a2.47,2.47,0,0,1,1-.8,2.6,2.6,0,0,1,1.16-.28,1.93,1.93,0,0,1,1.75.8,4.33,4.33,0,0,1,.52,2.35V201c0,.1,0,.23,0,.39s0,.32,0,.48,0,.31,0,.46,0,.25,0,.34Zm-.12-4h-.63a3.84,3.84,0,0,0-.76.07,1.58,1.58,0,0,0-1.15.81,1.94,1.94,0,0,0-.19.9,1.59,1.59,0,0,0,.37,1.18,1.09,1.09,0,0,0,1.53.09,1.8,1.8,0,0,0,.49-.68,3.5,3.5,0,0,0,.26-.9,6.17,6.17,0,0,0,.08-.94v-.54Zm4.28,5.13a3.55,3.55,0,0,1-.45,1.91,1.72,1.72,0,0,1-1.55.71l-.29,0a1.65,1.65,0,0,1-.32-.07l.09-.93a1.54,1.54,0,0,0,.46.08.88.88,0,0,0,.51-.14,1.08,1.08,0,0,0,.32-.38,1.54,1.54,0,0,0,.15-.55,4.68,4.68,0,0,0,0-.66v-8.9h1v9Zm.16-11.37a.77.77,0,0,1-.2.54.66.66,0,0,1-.5.21A.63.63,0,0,1,350,193a.78.78,0,0,1-.19-.55A.77.77,0,0,1,350,192a.62.62,0,0,1,.48-.22.63.63,0,0,1,.5.22.78.78,0,0,1,.2.53Zm7.23,6.31a6.77,6.77,0,0,1-.19,1.69,4.19,4.19,0,0,1-.54,1.31,2.56,2.56,0,0,1-.85.85,2.22,2.22,0,0,1-1.15.3,2.17,2.17,0,0,1-1.13-.3,2.78,2.78,0,0,1-.86-.85,4.73,4.73,0,0,1-.54-1.31,6.83,6.83,0,0,1-.19-1.69,7.45,7.45,0,0,1,.18-1.7,4.29,4.29,0,0,1,.53-1.32,2.49,2.49,0,0,1,.86-.85,2.25,2.25,0,0,1,1.16-.3,2.21,2.21,0,0,1,1.14.3,2.49,2.49,0,0,1,.86.85,4.29,4.29,0,0,1,.53,1.32,6.91,6.91,0,0,1,.19,1.7Zm-1.07,0a8.66,8.66,0,0,0-.1-1.29,3.91,3.91,0,0,0-.31-1,2,2,0,0,0-.51-.68,1.12,1.12,0,0,0-.74-.25,1.14,1.14,0,0,0-.74.25,1.79,1.79,0,0,0-.51.68,4.34,4.34,0,0,0-.3,1,8.66,8.66,0,0,0-.1,1.29,8.18,8.18,0,0,0,.1,1.27,4.4,4.4,0,0,0,.3,1,1.78,1.78,0,0,0,.51.69,1.19,1.19,0,0,0,.74.24,1.17,1.17,0,0,0,.74-.24,1.74,1.74,0,0,0,.52-.68,4.71,4.71,0,0,0,.3-1,7.31,7.31,0,0,0,.1-1.28Zm4.8-3.68a1.46,1.46,0,0,1,1-.46l.19,0,0,1.07-.12,0h-.13a1,1,0,0,0-.7.27,2,2,0,0,0-.51.69,3.81,3.81,0,0,0-.31,1,5.65,5.65,0,0,0-.11,1.08v4h-1v-6.39l0-.56v-.51c0-.15,0-.27,0-.35h1c0,.2,0,.45.05.75s0,.62,0,1h0a2.92,2.92,0,0,1,.68-1.48Zm10.34,7.6L368.73,197h0v5.72h-1.09V191.55h1.09v5h0l3.49-5h1.28l-3.75,5.15,4,6h-1.32Zm2.8-3.69a6.26,6.26,0,0,0,.11,1.19,3.35,3.35,0,0,0,.33.94,1.68,1.68,0,0,0,.54.63,1.29,1.29,0,0,0,.76.23,1.21,1.21,0,0,0,.92-.35,2.48,2.48,0,0,0,.54-.83l.79.46a3.15,3.15,0,0,1-.84,1.19A2.13,2.13,0,0,1,377,203a2.29,2.29,0,0,1-2-1.11,5.42,5.42,0,0,1-.73-3,7.47,7.47,0,0,1,.19-1.69,4.67,4.67,0,0,1,.54-1.32,2.74,2.74,0,0,1,.87-.86,2.21,2.21,0,0,1,1.14-.3,2.17,2.17,0,0,1,1.17.3,2.22,2.22,0,0,1,.77.81,3.91,3.91,0,0,1,.44,1.22,7.69,7.69,0,0,1,.13,1.48V199h-4.21Zm3.17-.87a4.12,4.12,0,0,0-.37-1.9,1.2,1.2,0,0,0-1.14-.71,1.1,1.1,0,0,0-.76.27,2.17,2.17,0,0,0-.51.68,3.48,3.48,0,0,0-.29.86,4.08,4.08,0,0,0-.08.8Zm4.9,6.23a5.79,5.79,0,0,1-.3.89,2.37,2.37,0,0,1-.4.66,1.8,1.8,0,0,1-.54.41,1.64,1.64,0,0,1-.73.15,3.13,3.13,0,0,1-.44,0l-.36-.09.14-.91.27.06a1.63,1.63,0,0,0,.31,0,.81.81,0,0,0,.69-.32,2.77,2.77,0,0,0,.37-.86l.34-1.36-2.27-8.09h1.11l1.68,6.6h0l1.49-6.6h1.06l-2.46,9.46Zm6.91-8.13a1.58,1.58,0,0,0-.53-.56,1.38,1.38,0,0,0-.78-.22,1.06,1.06,0,0,0-.82.37,1.41,1.41,0,0,0-.33,1,1.19,1.19,0,0,0,.32.92,2.94,2.94,0,0,0,1,.52,5.1,5.1,0,0,1,.63.3,2.41,2.41,0,0,1,.56.45,2.15,2.15,0,0,1,.39.64,2.18,2.18,0,0,1,.16.89,2.48,2.48,0,0,1-.62,1.79,2.16,2.16,0,0,1-1.61.64,2.43,2.43,0,0,1-1.22-.31,2.67,2.67,0,0,1-.91-.83l.63-.67a2.56,2.56,0,0,0,.64.67,1.47,1.47,0,0,0,.87.26,1.12,1.12,0,0,0,.89-.4,1.6,1.6,0,0,0,.34-1.07,1.41,1.41,0,0,0-.13-.64,1.27,1.27,0,0,0-.33-.43,2.61,2.61,0,0,0-.46-.3l-.54-.23a6.11,6.11,0,0,1-.58-.27,2.14,2.14,0,0,1-.5-.41,2.12,2.12,0,0,1-.35-.61,2.38,2.38,0,0,1-.14-.86,2.35,2.35,0,0,1,.17-.89,1.92,1.92,0,0,1,.47-.7,2.1,2.1,0,0,1,.68-.46,2.15,2.15,0,0,1,.85-.17,2.4,2.4,0,0,1,1.14.26,2.43,2.43,0,0,1,.78.67l-.62.68Z"/></g><circle id="inner" class="cls-17" cx="360" cy="360" r="68.82"/><path d="M339,345.67a7.79,7.79,0,0,1-7.25-.07A8.18,8.18,0,0,1,329,343a13,13,0,0,1-1.73-3.9,20.19,20.19,0,0,1,0-9.93,12.65,12.65,0,0,1,1.75-3.93,8.14,8.14,0,0,1,2.74-2.56,7.1,7.1,0,0,1,3.57-.91,8,8,0,0,1,3.56.75,6.39,6.39,0,0,1,2.5,2.14l-2.3,2.8a4.13,4.13,0,0,0-3.52-2,3.35,3.35,0,0,0-2.1.69A5.43,5.43,0,0,0,332,328a10.45,10.45,0,0,0-.89,2.75,19,19,0,0,0,0,6.72,10.5,10.5,0,0,0,.89,2.74,5.38,5.38,0,0,0,1.52,1.85,3.5,3.5,0,0,0,2.14.67,3.36,3.36,0,0,0,2-.59,5.37,5.37,0,0,0,1.42-1.47l2.29,2.7a7.35,7.35,0,0,1-2.38,2.26Zm9.13-21.62a2.29,2.29,0,0,1-.64,1.66,2.17,2.17,0,0,1-3.14,0,2.36,2.36,0,0,1-.62-1.66,2.42,2.42,0,0,1,.62-1.66,2.13,2.13,0,0,1,3.16,0,2.42,2.42,0,0,1,.62,1.66ZM344,345.93V329h3.76v17Zm13.43-16.56a3,3,0,0,1,2.2-1H360a1.55,1.55,0,0,1,.28.06l-.2,3.86a2.85,2.85,0,0,0-.79-.1,2,2,0,0,0-1.3.45,3.66,3.66,0,0,0-1,1.18,5.93,5.93,0,0,0-.6,1.66,8.64,8.64,0,0,0-.2,1.9v8.51h-3.83V329H356v3.26h.07a6,6,0,0,1,1.36-2.86ZM370,346.08a5.85,5.85,0,0,1-2.27.42,5.53,5.53,0,0,1-2.76-.67,5.64,5.64,0,0,1-2-1.88,8.9,8.9,0,0,1-1.21-2.87,15.49,15.49,0,0,1-.4-3.66,15,15,0,0,1,.42-3.66A8.78,8.78,0,0,1,363,330.9a5.6,5.6,0,0,1,2-1.84,5.54,5.54,0,0,1,2.75-.65,5.43,5.43,0,0,1,2.34.46,5.79,5.79,0,0,1,1.55,1l-1.7,2.83a3.08,3.08,0,0,0-.85-.66,2.37,2.37,0,0,0-1.18-.27,2.28,2.28,0,0,0-2.11,1.55,9.75,9.75,0,0,0-.71,4.07,9.48,9.48,0,0,0,.73,4.06A2.37,2.37,0,0,0,368,343a2.46,2.46,0,0,0,1.19-.27,2.76,2.76,0,0,0,.87-.73l1.56,2.92a4.92,4.92,0,0,1-1.69,1.15Zm4-.15V320.79h3.76v25.14Zm11-7.51a8.15,8.15,0,0,0,.2,1.88,5.13,5.13,0,0,0,.58,1.53,3.2,3.2,0,0,0,.93,1,2.22,2.22,0,0,0,1.28.38,2.12,2.12,0,0,0,1.65-.67,5.27,5.27,0,0,0,1-1.53l2.76,1.6a6.73,6.73,0,0,1-2.08,2.81,5.44,5.44,0,0,1-3.44,1.05,5.72,5.72,0,0,1-4.76-2.33q-1.79-2.32-1.79-6.68a13.91,13.91,0,0,1,.46-3.71,8.9,8.9,0,0,1,1.33-2.88,6.16,6.16,0,0,1,2.05-1.84,5.27,5.27,0,0,1,2.64-.65,5.5,5.5,0,0,1,2.78.66,5.4,5.4,0,0,1,1.86,1.82,8.16,8.16,0,0,1,1,2.71,16.38,16.38,0,0,1,.33,3.39v1.43Zm5.22-2.73a6.84,6.84,0,0,0-.6-3.08,2,2,0,0,0-1.86-1.18,1.91,1.91,0,0,0-1.25.43,3.25,3.25,0,0,0-.83,1.09,6.16,6.16,0,0,0-.48,1.39,6.38,6.38,0,0,0-.17,1.35ZM361,360.74a7.8,7.8,0,0,1-.23,1.93,4.56,4.56,0,0,1-.69,1.49,3.35,3.35,0,0,1-1.08,1,3.12,3.12,0,0,1-2.87,0,3.25,3.25,0,0,1-1.08-1,4.56,4.56,0,0,1-.69-1.49,7.35,7.35,0,0,1-.23-1.93,7.45,7.45,0,0,1,.23-1.95,4.88,4.88,0,0,1,.68-1.51,3.06,3.06,0,0,1,1.08-1,3.12,3.12,0,0,1,1.44-.34,3.06,3.06,0,0,1,1.44.34,3.24,3.24,0,0,1,1.08,1,4.67,4.67,0,0,1,.69,1.51A7.45,7.45,0,0,1,361,360.74Zm-2,0a7.64,7.64,0,0,0-.09-1.21,4.18,4.18,0,0,0-.27-1,1.88,1.88,0,0,0-.46-.64,1,1,0,0,0-1.31,0,1.74,1.74,0,0,0-.45.64,4.69,4.69,0,0,0-.26,1,7.33,7.33,0,0,0-.09,1.2,7.56,7.56,0,0,0,.09,1.19,4.43,4.43,0,0,0,.26,1,1.83,1.83,0,0,0,.45.64,1,1,0,0,0,.66.23,1,1,0,0,0,.66-.23,1.73,1.73,0,0,0,.46-.64,4.43,4.43,0,0,0,.26-1,7.56,7.56,0,0,0,.09-1.19Zm7.47-7.39a1.42,1.42,0,0,0-.52-.09.92.92,0,0,0-.55.15,1,1,0,0,0-.33.39,1.93,1.93,0,0,0-.17.56,3.49,3.49,0,0,0-.06.65v1.26h1.44v1.58h-1.42v7.35H363v-7.35h-1.12v-1.58H363V355a6.14,6.14,0,0,1,.14-1.32,3,3,0,0,1,.48-1.08,2.31,2.31,0,0,1,.85-.72,2.86,2.86,0,0,1,1.26-.26,2.79,2.79,0,0,1,.47,0,2.51,2.51,0,0,1,.45.1l-.12,1.61ZM332.2,378.49v6.45h6.05v3.39h-6v10.11h-4V374.9h10.54v3.59Zm13.2-1.93a2.34,2.34,0,0,1-.63,1.67,2.2,2.2,0,0,1-3.14,0,2.38,2.38,0,0,1-.62-1.67,2.44,2.44,0,0,1,.62-1.66,2.13,2.13,0,0,1,3.16,0,2.42,2.42,0,0,1,.61,1.66Zm-4,21.89v-17h3.75v17Zm15.19-22.52a2.79,2.79,0,0,0-1-.17,1.74,1.74,0,0,0-1,.29,2,2,0,0,0-.63.74,4.19,4.19,0,0,0-.33,1.07,7.12,7.12,0,0,0-.1,1.23v2.39h2.73v3h-2.7v14h-3.66v-14H347.7v-3h2.12V379a10.66,10.66,0,0,1,.29-2.51,5.84,5.84,0,0,1,.9-2,4.31,4.31,0,0,1,1.61-1.37,5.31,5.31,0,0,1,2.39-.5,6,6,0,0,1,.9.07,3.85,3.85,0,0,1,.87.2l-.23,3.06Z"/><path d="M361.93,384.38v8.71a3.77,3.77,0,0,0,.42,2,1.41,1.41,0,0,0,1.28.63,3.23,3.23,0,0,0,.61-.06,2,2,0,0,0,.55-.2l.07,2.92a4.09,4.09,0,0,1-1.07.34,6.59,6.59,0,0,1-1.33.13,3.62,3.62,0,0,1-3.11-1.28,6.14,6.14,0,0,1-1-3.68v-9.54h-2.12v-2.89h2.12v-4.33h3.53v4.33h3v2.89Zm14.24,14.07V387.8c0-.42,0-.85-.07-1.28a4.74,4.74,0,0,0-.28-1.18,2,2,0,0,0-.64-.85,1.71,1.71,0,0,0-1.08-.31,2.27,2.27,0,0,0-2,1.26,6.21,6.21,0,0,0-.75,3.2v9.81h-3.76V373.3h3.76v10.81h.07a5.21,5.21,0,0,1,1.48-2.24,3.8,3.8,0,0,1,2.64-.95,4,4,0,0,1,2.26.58,3.79,3.79,0,0,1,1.33,1.55,7.53,7.53,0,0,1,.64,2.21,19.35,19.35,0,0,1,.16,2.54v10.65Zm15.36-13.14a3.63,3.63,0,0,0-1.17-1,3.08,3.08,0,0,0-1.59-.4,1.86,1.86,0,0,0-1.4.58,2.13,2.13,0,0,0-.56,1.55,1.7,1.7,0,0,0,.6,1.45,7.39,7.39,0,0,0,1.89.91,10.93,10.93,0,0,1,1.45.65,5.06,5.06,0,0,1,1.29,1,4.66,4.66,0,0,1,.94,1.44,5.37,5.37,0,0,1,.35,2,6.14,6.14,0,0,1-.45,2.44,5,5,0,0,1-1.22,1.75,5,5,0,0,1-1.74,1,6.43,6.43,0,0,1-2.05.33,7.12,7.12,0,0,1-5.32-2.33l2-2.39a6.43,6.43,0,0,0,1.39,1.2,3.51,3.51,0,0,0,1.87.5,1.82,1.82,0,0,0,1.46-.64,2.5,2.5,0,0,0,.53-1.66,2,2,0,0,0-.78-1.73,9.41,9.41,0,0,0-2.08-1,9.15,9.15,0,0,1-1.29-.56,4.47,4.47,0,0,1-1.17-.9,4.35,4.35,0,0,1-.85-1.38,5.49,5.49,0,0,1-.31-2,5.1,5.1,0,0,1,.45-2.19A5.22,5.22,0,0,1,385,382.3a5,5,0,0,1,1.69-1,5.93,5.93,0,0,1,2-.35,6.77,6.77,0,0,1,4.85,2l-2,2.43Z"/></svg>